<svg xmlns="http://www.w3.org/2000/svg" viewBox="102 1 28 28">
  <path d="M112.359 10.985C114.341 8.39245 115.987 5.82884 116.619 3.75859C116.637 3.70226 116.703 3.67833 116.752 3.71085C118.952 5.16839 122.962 6.12778 126.507 6.1503C126.569 6.15069 126.611 6.21085 126.588 6.26774C125.41 9.25883 123.969 14.6184 123.914 20.7386C123.913 20.8296 123.786 20.8622 123.741 20.7832C121.722 17.2517 115.259 12.2893 112.393 11.118C112.34 11.0962 112.324 11.0308 112.359 10.985Z" fill="url(#p0)"/>
  <path d="M119.046 9.39977C115.949 10.3806 113.118 10.9259 112.442 11.0499C112.399 11.0577 112.39 11.1173 112.43 11.1341C115.319 12.3347 121.75 17.2826 123.75 20.7998C123.754 20.8075 123.763 20.8103 123.771 20.8068C123.78 20.803 123.784 20.7931 123.78 20.7844L119.046 9.39977Z" fill="url(#p1)"/>
  <path d="M116.761 3.70451C119.413 5.15112 122.478 5.80083 126.544 6.14318C126.57 6.14537 126.578 6.17959 126.555 6.19148C126.035 6.45874 123.056 7.97464 120.844 8.78652C120.251 9.00404 119.655 9.20583 119.068 9.39201C119.055 9.39607 119.041 9.38966 119.036 9.37725L116.7 3.7593C116.684 3.72147 116.725 3.68489 116.761 3.70451Z" fill="url(#p2)"/>
  <path d="M116.713 3.78906L123.829 20.7646" stroke="#513C9F" stroke-width="0.17284" stroke-linecap="round"/>
  <path d="M112.443 11.0463C112.443 11.0463 116.373 10.3409 120.067 9.06673C123.761 7.79258 126.511 6.23242 126.511 6.23242" stroke="#513C9F" stroke-width="0.17284" stroke-linecap="round"/>
  <path d="M117.69 5.93555L115.055 14.7072M115.055 14.7072H121.32M115.055 14.7072L105.156 26.365" stroke="#ABABAB" stroke-width="0.302474" stroke-linecap="round"/>
  <path d="M112.024 23.9635L110.857 24.1275C111.462 25.7276 112.703 26.4264 114.185 26.4264C117.814 26.4264 116.706 22.3215 118.81 22.3215C120.335 22.3215 119.715 25.6487 122.999 25.6487C125.003 25.6487 125.202 23.6299 124.861 22.7613C124.858 22.7561 124.856 22.7512 124.853 22.7464L124.316 21.9241C124.281 21.8694 124.196 21.8901 124.19 21.955L124.09 22.9517C124.083 23.021 124.085 23.0902 124.093 23.1593C124.176 23.8479 124.229 25.519 122.999 25.519C121.701 25.519 121.389 22.2351 118.81 22.2351C115.783 22.2351 116.172 26.2968 114.314 26.2968C113.089 26.2968 112.154 24.9141 112.024 23.9635Z" fill="url(#p3)"/>
  <defs>
    <linearGradient id="p0" x1="121.536" y1="5.02725" x2="118.079" y2="14.5334" gradientUnits="userSpaceOnUse">
      <stop stop-color="#6430AB"/>
      <stop offset="1" stop-color="#AA89D8"/>
    </linearGradient>
    <linearGradient id="p1" x1="118.857" y1="10.3859" x2="114.406" y2="18.9847" gradientUnits="userSpaceOnUse">
      <stop stop-color="#005DBB"/>
      <stop offset="1" stop-color="#3D92E8"/>
    </linearGradient>
    <linearGradient id="p2" x1="120.844" y1="5.02725" x2="119.504" y2="9.21862" gradientUnits="userSpaceOnUse">
      <stop stop-color="#1B70C4"/>
      <stop offset="1" stop-color="#54A4F2"/>
    </linearGradient>
    <linearGradient id="p3" x1="110.857" y1="24.2443" x2="124.996" y2="24.2443" gradientUnits="userSpaceOnUse">
      <stop stop-color="#4497EA"/>
      <stop offset="0.254755" stop-color="#1463B2"/>
      <stop offset="0.498725" stop-color="#0A437D"/>
      <stop offset="0.666667" stop-color="#2476C8"/>
      <stop offset="0.972542" stop-color="#0C549A"/>
    </linearGradient>
  </defs>
</svg>
